<svg width="117" height="117" viewBox="0 0 117 117" fill="none" xmlns="http://www.w3.org/2000/svg"><path d="M93.4 0H23.6C10.6 0 0 10.5 0 23.6v69.8c0 13 10.5 23.6 23.6 23.6h69.8c13 0 23.6-10.5 23.6-23.6V23.6C117 10.6 106.5 0 93.4 0Z" fill="#1C1F2B"/><path d="M66.6 26.5c.7-.8 1.6-1.1 2.6-1.1h4.5c1 0 1.9.3 2.6 1 .7.7 1 1.6 1 2.6V48l21.8-20.9c.4-.3.8-.7 1.4-1a6 6 0 0 1 3.1-.8h5c.8 0 1.6.3 2.2 1 .6.6 1 1.3 1 2.2 0 .7-.2 1.5-.7 2v.1L83 58.2l-2.6 2.5a34.6 34.6 0 0 0-14.7-.3V29c0-1 .2-1.8 1-2.5Z" fill="url(#a)"/><path d="M17.8 26.4c3.7-1.6 8-2.4 12.8-2.4 3.9 0 7.4.5 10.4 1.6A21.9 21.9 0 0 1 53.4 36c1 2 1.7 4.2 1.7 6.3v.1a4 4 0 0 1-.8 2.4c-.8 1-2 1.3-3 1.3h-4.8a5 5 0 0 1-2.2-.6c-1-.5-1.6-1.5-1.9-2.4V42.7a7.3 7.3 0 0 0-3.5-5c-2-1.4-4.7-2.2-8.3-2.2-3.7 0-6.5.7-8.6 2-1.8 1.1-2.8 2.8-2.8 5.4 0 1.7.5 3 1.3 4 .9 1 2.4 2 4.7 3 2.4 1 5.6 2 9.5 3.2A71 71 0 0 1 47 57.5a17.7 17.7 0 0 1 8 6.8c-4.1 2.2-7.8 5-10.6 8.2A4 4 0 0 0 44 71l-1.1-1.4c-1-1.1-2.8-2.2-5.3-3.1-2.6-1-6-2.1-10.2-3.3a61.7 61.7 0 0 1-11.3-4.3A18.6 18.6 0 0 1 9 52.6 17.8 17.8 0 0 1 6.5 43c0-3.6 1-6.9 3-9.7 2-3 4.7-5.2 8.3-6.9Z" fill="url(#b)"/><path d="M71.9 62.1c-10 0-20.3 5.4-26.3 12.5-3.1 3.8-6.4 7-12.7 7-4.3 0-8.2-.4-11.1-1.8-2-1.2-3.2-2-3.9-2.9-.6-.8-1-1.6-1.3-2.9-.2-.8-.5-1.4-1-2-.8-.7-1.8-1-2.7-1H8.3c-1 0-1.8.5-2.5 1.1a3 3 0 0 0-.8 2.1v.6c.6 3.3 1.5 6 3.3 8.3 1.8 2.4 4.5 4.4 8.3 6.7A36.4 36.4 0 0 0 33 93c11.6 0 17.8-6.8 21.4-11A25 25 0 0 1 72 73.4c4.3 0 7 1 9 2.2a29 29 0 0 1 6.2 5.7l.1.1c2.2 2.4 4.8 5.3 8.5 7.6a27 27 0 0 0 13 3.8c1.9.1 3.4-1.4 3.4-3.2V85c0-1.9-1.5-3.3-3.2-3.4-3.3-.2-5.5-1.1-7.2-2.2a28.9 28.9 0 0 1-6.2-5.6l-.2-.2A27.7 27.7 0 0 0 72 62.2Z" fill="url(#c)"/><defs><linearGradient id="a" x1="88.7" y1="25.4" x2="88.7" y2="63.3" gradientUnits="userSpaceOnUse"><stop stop-color="#0684E0"/><stop offset="1" stop-color="#56B1F4"/></linearGradient><linearGradient id="b" x1="31.4" y1="24" x2="31.4" y2="78.6" gradientUnits="userSpaceOnUse"><stop stop-color="#0684E0"/><stop offset="1" stop-color="#56B1F4"/></linearGradient><linearGradient id="c" x1="140.1" y1="48.9" x2="95.6" y2="114.7" gradientUnits="userSpaceOnUse"><stop stop-color="#6818EC"/><stop offset="1" stop-color="#0986E1"/></linearGradient></defs></svg>
